<?xml version="1.0" encoding="utf-8"?>
<svg version="1.0" xmlns="http://www.w3.org/2000/svg" width="800.000000pt" height="800.000000pt" viewBox="0 0 800.000000 800.000000" preserveAspectRatio="xMidYMid meet">
  <path d="M 304.116 253.273 L 304.116 347.125 L 349.101 347.125 L 394.086 347.125 L 394.086 371.723 L 394.086 396.322 L 243.752 396.322 L 93.418 396.322 L 93.418 408.81 L 93.418 421.299 L 158.781 421.299 L 224.143 421.299 L 223.989 447.562 L 223.759 473.902 L 175.544 474.129 L 127.253 474.28 L 127.253 568.132 L 127.253 661.985 L 236.293 661.834 L 345.256 661.607 L 345.487 567.905 L 345.641 474.28 L 302.194 474.28 L 258.747 474.28 L 258.747 447.789 L 258.747 421.299 L 413.695 421.299 L 568.643 421.299 L 568.643 446.276 L 568.643 471.253 L 519.429 471.253 L 470.214 471.253 L 470.214 565.483 L 470.214 659.714 L 579.408 659.714 L 688.602 659.714 L 688.449 565.635 L 688.218 471.631 L 645.771 471.404 L 603.247 471.253 L 603.247 446.276 L 603.247 421.299 L 642.849 421.299 L 682.451 421.299 L 682.451 408.81 L 682.451 396.322 L 555.57 396.322 L 428.69 396.322 L 428.844 371.875 L 429.074 347.503 L 475.828 347.276 L 522.504 347.125 L 522.351 253.424 L 522.12 159.799 L 413.157 159.571 L 304.116 159.42 L 304.116 253.273 Z M 487.901 253.651 L 487.901 313.823 L 412.926 313.823 L 337.951 313.823 L 337.951 253.651 L 337.951 193.479 L 412.926 193.479 L 487.901 193.479 L 487.901 253.651 Z M 653.999 565.483 L 653.999 625.655 L 579.024 625.655 L 504.049 625.655 L 504.049 565.483 L 504.049 505.312 L 579.024 505.312 L 653.999 505.312 L 653.999 565.483 Z M 311.037 567.754 L 311.037 627.926 L 236.062 627.926 L 161.088 627.926 L 161.088 567.754 L 161.088 507.583 L 236.062 507.583 L 311.037 507.583 L 311.037 567.754 Z" fill="#000000" stroke="none" style="stroke-width: 0.1;"/>
  <rect x="16.62" y="132.642" width="766.165" height="558.295" style="fill: none; stroke: currentcolor; stroke-width: 34px;"/>
  <rect x="161.239" y="507.375" width="149.711" height="120.599" style="stroke-width: 0px; fill: rgb(255, 0, 0);"/>
  <rect x="337.869" y="193.797" width="149.711" height="120.599" style="stroke-width: 0; fill: rgb(0, 255, 0);"/>
  <rect x="503.965" y="505.078" width="150.371" height="121.13" style="stroke-width: 0; fill: rgb(0, 0, 255);"/>
</svg>